<svg xmlns="http://www.w3.org/2000/svg" xmlns:xlink="http://www.w3.org/1999/xlink" viewBox="0 0 85 85" enable-background="new 0 0 85 85"><defs><circle id="a" cx="42.5" cy="42.5" r="42.5"/></defs><clipPath id="b"><use xlink:href="#a" overflow="visible"/></clipPath><g clip-path="url(#b)"><circle fill="#272C38" cx="42.5" cy="42.5" r="42.5"/><path fill="#D73E27" d="M13.7 137.3c-3.2 0-6.2-1.5-8.1-4.1-1.7-2.3-2.1-5.2-1.2-7.9.9-2.7 3.1-4.7 5.8-5.5 4.1-1.1 11.5-4 16.5-5.9 4-1.6 5.4-2.1 6.3-2.3 4.7-1.2 5-3.5 5.1-4.7-.7-3.6-8.3-22.7-13.9-36.6-3.3-8.3-6.5-16.1-8.7-22-2.7-7.1-1.8-15.1 2.5-21.4 2.3-3.4 6.2-9.2 10.2-15.4 6.8-10.3 14.5-21.9 17.5-26l1.9-2.7 63.6 14.2-5.8 6.4c-7.7 8.5-37.9 33.2-48.6 41.8 3.3 5.4 8.3 15.5 8.3 28.4l.9 30.3c0 2.4.7 4.7 2 6.7 6 9.3 6.4 11.1 6.6 12.1.6 3.2-.1 6.5-2 9.1-2 2.8-5 4.7-8.5 5.3l-.4.1-50 .1z"/><path fill="#FAAE1C" d="M101.7 0l-51.9-11.5c-4.7 6.4-21.5 32.3-27.7 41.3-3.4 4.9-4.1 11.2-2 16.8 6.9 18.2 23 56.5 23 60.2-.1 4.9-3.2 8.3-8.8 9.7-1.8.5-16 6.3-22.7 8.2-2.4.7-3.4 3.5-1.9 5.5.9 1.3 2.4 2 4 2l49.6-.2c4.4-.7 7.2-4.5 6.4-8.6-.3-1.5-3.4-6.6-5.8-10.3-1.8-2.8-2.8-6-2.8-9.3l-.9-30.4c0-17.4-10.1-29.4-10.1-29.4s42.7-34 51.6-44z"/><g stroke="#fff" stroke-width="3.018" stroke-linecap="round" stroke-linejoin="round" fill="none"><path d="M30.8 107.1c.4-.1.7-.2.9-.3.4-.1.7-.2 1-.3-.2-.5-.4-1.2-.6-1.9"/><path stroke-dasharray="4.1255,6.1882" d="M30 98.8c-3-7.8-7.3-18.5-10.5-26.6-3.3-8.3-6.5-16.2-8.7-22.1-3.3-8.6-2.2-18.4 3-26 2.3-3.3 6.1-9.1 10.2-15.3 7.2-10.8 14.6-22 17.7-26.2l.9-1.2"/><path d="M44.4-21.1l1.2-1.6 1.9.4"/><path stroke-dasharray="3.8405,5.7608" d="M53.1-21.1l62.8 13.9"/><path d="M118.8-6.5l1.9.4-1.3 1.5"/><path stroke-dasharray="3.8872,5.8309" d="M115.5-.3l-6.3 7c-6.6 7.3-28.5 25.5-42 36.5"/><path d="M64.9 45.1l-1.6 1.3.9 1.8"/><path stroke-dasharray="4.0651,6.0976" d="M66.6 53.8c2 5.5 3.6 12.1 3.6 19.6l.9 30.4c0 1.4.4 2.8 1.2 4 6.1 9.4 6.9 11.8 7.3 13.9.9 4.5-.1 9.1-2.8 12.9-2.7 3.9-6.9 6.6-11.8 7.4l-.8.1-50.5.2c-4.8 0-9.3-2.3-12.1-6.2-2.6-3.6-3.3-8.3-1.9-12.5 1.5-4.2 4.9-7.5 9.2-8.7 3.8-1.1 11.2-3.9 16-5.7 1.2-.5 2.2-.8 3-1.1"/></g><path fill="#fff" d="M58.7 100.8c2.2.5 4.1 2.2 4.6 4.6.6 2.9-1.1 5.9-3.9 6.8-1 .3-2 .4-2.9.2-1.2-.2-2.5.1-3.4.9-.7.6-1.6 1.1-2.6 1.3-2.9.7-5.9-1-6.9-3.8-.8-2.3-.1-4.7 1.6-6.3 1.2-1.1 1.7-2.7 1.3-4.2l-10.2-36.9c-.4-1.5-1.7-2.7-3.3-3-2.2-.5-4.1-2.2-4.6-4.6-.6-2.9 1.1-5.9 3.9-6.8 1-.3 2-.4 2.9-.2 1.2.2 2.5-.1 3.4-.9.7-.6 1.6-1.1 2.6-1.3 2.9-.7 5.9 1 6.9 3.8.8 2.3.1 4.7-1.6 6.3-1.2 1.1-1.7 2.7-1.3 4.2l10.2 36.9c.4 1.5 1.7 2.6 3.3 3zm-8-72.8l25.2-28.8c1.1-1.2 2.7-1.7 4.3-1.3 2.2.6 4.6-.2 6.1-2.1 1.8-2.4 1.6-5.8-.6-7.9-.7-.7-1.6-1.2-2.6-1.4-1.2-.3-2.2-1.2-2.6-2.3-.4-.9-1-1.7-1.8-2.3-2.3-1.9-5.8-1.7-7.9.5-1.7 1.7-2.1 4.3-1.3 6.3.6 1.5.3 3.2-.7 4.4l-25.1 28.7c-1.1 1.2-2.7 1.7-4.2 1.3-2.2-.6-4.6.2-6.1 2.1-1.8 2.4-1.6 5.8.6 7.9.7.7 1.6 1.2 2.5 1.4 1.2.3 2.2 1.2 2.6 2.3.4.9 1 1.7 1.8 2.3 2.3 1.9 5.8 1.6 7.9-.5 1.7-1.7 2.1-4.2 1.3-6.3-.7-1.5-.4-3.1.6-4.3zm-19.6 8.9c-3.5 0-6.3 2-6.3 4.5s2.8 4.5 6.3 4.5 6.3-2 6.3-4.5-2.8-4.5-6.3-4.5z"/></g></svg>