<svg xmlns="http://www.w3.org/2000/svg" viewBox="0 0 86.1 86" enable-background="new 0 0 86.1 86"><path fill="#FAAE1C" d="M86.1 85.8v-55.6c0-4.2-2.6-7.5-6.7-8.6-.7-.2-1.5-.2-2.3-.2h-46.6c-5.3 0-9 3.7-9 9v33.9c0 4.2 2.6 7.5 6.7 8.6.8.2 1.7.2 2.5.2h41.8c.5 0 .9.2 1.2.5l11.7 11.7.5.6s.1 0 .2-.1z"/><path fill="#DF8626" d="M30.5 21.5c-5.3 0-9 3.7-9 9v28.8h41.5c.8 0 1.7 0 2.5-.2 4.1-1 6.7-4.4 6.7-8.6v-29h-41.7z"/><path fill="#fff" d="M0 64.4v-55.6c0-4.2 2.6-7.5 6.7-8.6.7-.2 1.5-.2 2.3-.2h46.6c5.3 0 9 3.7 9 9v33.9c0 4.2-2.6 7.5-6.7 8.6-.8.2-1.7.2-2.5.2h-41.8c-.5 0-.9.2-1.2.5l-11.7 11.7-.5.6s-.1-.1-.2-.1z"/></svg>