<svg xmlns="http://www.w3.org/2000/svg" xmlns:xlink="http://www.w3.org/1999/xlink" viewBox="0 0 85 85" enable-background="new 0 0 85 85"><defs><circle id="a" cx="42.5" cy="42.5" r="42.5"/></defs><clipPath id="b"><use xlink:href="#a" overflow="visible"/></clipPath><g clip-path="url(#b)"><circle fill="#16181D" cx="42.5" cy="42.5" r="42.5"/><g stroke-linecap="round" stroke-linejoin="round" stroke-miterlimit="10" fill="none"><path stroke="#F3F3F3" stroke-width="2.116" d="M45.2 53.8h-6m10-7.4h-13m13-7.4h-13m9-7.4h-6M45.2 95.2h-6m10-7.4h-13m13-7.4h-13m9-7.4h-6M45.2 12.2h-6m10-7.4h-13m13-7.4h-13m9-7.4h-6"/><path stroke="#D73E27" stroke-width="5.291" d="M42.5-20.2c7.9 4.3 13.2 12 13.2 20.9s-5.3 16.6-13.2 20.9-13.2 12-13.2 20.9 5.3 16.6 13.2 20.9c7.9 4.3 13.2 12 13.2 20.9s-5.3 16.6-13.2 20.9m0-125.4c-7.9 4.3-13.2 12-13.2 20.9s5.3 16.6 13.2 20.9 13.2 12 13.2 20.9-5.3 16.6-13.2 20.9c-7.9 4.3-13.2 12-13.2 20.9s5.3 16.6 13.2 20.9"/></g><g stroke-linecap="round" stroke-linejoin="round" stroke-miterlimit="10" fill="none"><path stroke="#F3F3F3" stroke-width="2.116" d="M3.6 74.7h-6m10-7.4h-13m13-7.4h-13m9-7.5h-6"/><path stroke="#D73E27" stroke-width="2.116" d="M3.6 116h-6m10-7.4h-13m13-7.4h-13m9-7.4h-6"/><path stroke="#F3F3F3" stroke-width="2.116" d="M3.6 33h-6m10-7.4h-13m13-7.4h-13m9-7.4h-6"/><path stroke="#FAAE1C" stroke-width="5.291" d="M.9.7c7.9 4.3 13.2 12 13.2 20.9s-5.2 16.5-13.2 20.8-13.2 12-13.2 20.9 5.3 16.6 13.2 20.9c7.9 4.3 13.2 12 13.2 20.9s-5.2 16.6-13.2 20.9m0-125.3c-7.9 4.3-13.2 12-13.2 20.9s5.3 16.5 13.2 20.8 13.2 12 13.2 20.9-5.2 16.6-13.2 20.9c-7.9 4.3-13.2 12-13.2 20.9s5.3 16.6 13.2 20.9"/></g><g stroke-linecap="round" stroke-linejoin="round" stroke-miterlimit="10" fill="none"><path stroke="#F3F3F3" stroke-width="2.116" d="M88.6 74.7h-6m10-7.4h-13m13-7.4h-13m9-7.5h-6"/><path stroke="#D73E27" stroke-width="2.116" d="M88.6 116h-6m10-7.4h-13m13-7.4h-13m9-7.4h-6"/><path stroke="#F3F3F3" stroke-width="2.116" d="M88.6 33h-6m10-7.4h-13m13-7.4h-13m9-7.4h-6"/><path stroke="#FAAE1C" stroke-width="5.291" d="M85.9.7c7.9 4.3 13.2 12 13.2 20.9s-5.3 16.6-13.2 20.9-13.2 12-13.2 20.9 5.3 16.5 13.2 20.8c7.9 4.3 13.2 12 13.2 20.9s-5.3 16.6-13.2 20.9m0-125.3c-7.9 4.3-13.2 12-13.2 20.9s5.3 16.5 13.2 20.8 13.2 12 13.2 20.9-5.3 16.6-13.2 20.9c-7.9 4.3-13.2 12-13.2 20.9s5.3 16.6 13.2 20.9"/></g></g></svg>