<?xml version="1.0" encoding="utf-8"?>
<!-- Generator: Adobe Illustrator 20.0.0, SVG Export Plug-In . SVG Version: 6.00 Build 0)  -->
<!DOCTYPE svg PUBLIC "-//W3C//DTD SVG 1.1//EN" "http://www.w3.org/Graphics/SVG/1.1/DTD/svg11.dtd">
<svg version="1.1" id="Layer_1" xmlns="http://www.w3.org/2000/svg" xmlns:xlink="http://www.w3.org/1999/xlink" x="0px" y="0px"
	 viewBox="0 0 14.1 16" enable-background="new 0 0 14.1 16" xml:space="preserve">
<path fill="#AAB1B7" d="M0,5.5v9.3C0,15.4,0.6,16,1.3,16h11.6c0.7,0,1.3-0.6,1.3-1.3V5.5H0z M3.5,14.7H0.9v-2.5h2.7V14.7z M3.5,11.8
	H0.9V9.3h2.7V11.8z M3.5,8.8H0.9V6.3h2.7V8.8z M6.8,14.7H4.1v-2.5h2.7V14.7z M6.8,8.8H4.1V6.3h2.7V8.8z M10,14.7H7.4v-2.5H10V14.7z
	 M10,11.8H7.4V9.3H10V11.8z M10,8.8H7.4V6.3H10V8.8z M13.3,14.7h-2.7v-2.5h2.7V14.7z M13.3,11.8h-2.7V9.3h2.7V11.8z M13.3,8.8h-2.7
	V6.3h2.7V8.8z M3.9,2.8L3.9,2.8c-0.3,0-0.5-0.2-0.5-0.5V0.5C3.3,0.2,3.6,0,3.9,0h0c0.3,0,0.5,0.2,0.5,0.5v1.8
	C4.4,2.6,4.1,2.8,3.9,2.8z M14.1,3.2v1.3H0V3.2c0-0.7,0.6-1.3,1.3-1.3h1.2v0.4c0,0.8,0.6,1.4,1.4,1.4s1.4-0.6,1.4-1.4V1.9h3.7v0.4
	c0,0.8,0.6,1.4,1.4,1.4c0.8,0,1.4-0.6,1.4-1.4V1.9h1.2C13.6,1.9,14.1,2.5,14.1,3.2z M10.3,2.8L10.3,2.8c-0.3,0-0.5-0.2-0.5-0.5V0.5
	C9.8,0.2,10,0,10.3,0h0c0.3,0,0.5,0.2,0.5,0.5v1.8C10.8,2.6,10.6,2.8,10.3,2.8z"/>
</svg>
