<svg xmlns="http://www.w3.org/2000/svg" xmlns:xlink="http://www.w3.org/1999/xlink" viewBox="0 0 85 85" enable-background="new 0 0 85 85"><defs><circle id="a" cx="42.5" cy="42.5" r="42.5"/></defs><clipPath id="b"><use xlink:href="#a" overflow="visible"/></clipPath><g clip-path="url(#b)"><circle fill="#16181D" cx="42.5" cy="42.5" r="42.5"/><path stroke="#fff" stroke-width="3.043" stroke-linecap="round" stroke-linejoin="round" stroke-miterlimit="10" d="M62.7 36.6v-6.5c0-3 2.5-5.5 5.5-5.5h3.1" fill="none"/><path fill="#FAAE1C" d="M-14.4 36.6h35v11.4h-35z"/><path fill="#DF8626" d="M-14.4 41.9h35v6.1h-35z"/><path fill="#FAAE1C" d="M58.4 36.6h9.6v11.4h-9.6z"/><path fill="#DF8626" d="M58.4 41.9h9.6v6.1h-9.6z"/><path fill="#E0851B" d="M23.6 15.2h8.4v54.2h-8.4z"/><path fill="#fff" d="M23.6 19.2h8.4v3.4h-8.4z"/><path fill="#E0851B" d="M35.5 21.6h8.4v41.5h-8.4zM47.3 27h8.4v30.5h-8.4z"/><path fill="#D73E27" d="M23.6 41.9h8.4v27.5h-8.4zM35.5 42h8.4v21.1h-8.4zM47.3 42.1h8.4v15.5h-8.4z"/><path fill="#fff" d="M35.5 25.6h8.4v3.4h-8.4zM47.3 31h8.4v3.4h-8.4z"/></g></svg>