<svg xmlns="http://www.w3.org/2000/svg" xmlns:xlink="http://www.w3.org/1999/xlink" viewBox="0 0 85 85" enable-background="new 0 0 85 85"><defs><circle id="a" cx="42.5" cy="42.5" r="42.5"/></defs><clipPath id="b"><use xlink:href="#a" overflow="visible"/></clipPath><g clip-path="url(#b)"><circle fill="#16181D" cx="42.5" cy="42.5" r="42.5"/><g stroke="#fff" stroke-width="3.259" stroke-linecap="round" stroke-linejoin="round" fill="none"><path d="M14.7 27l.9-1.4"/><path stroke-dasharray="3.1142,6.2285" d="M19.5 20.8c1.5-1.5 3.1-2.8 4.8-4"/><path d="M27 15.2c.5-.3 1-.5 1.5-.7M10.8 46.4l.2 1.6"/><path stroke-dasharray="3.1303,6.2607" d="M12.8 54c2 4.9 5.1 9.2 9.2 12.5"/><path d="M24.5 68.3l1.4.9"/></g><g stroke="#fff" stroke-width="3.259" stroke-linecap="round" stroke-linejoin="round" fill="none"><path d="M70.2 27l-.9-1.4"/><path stroke-dasharray="3.1142,6.2285" d="M65.4 20.8c-1.5-1.5-3.1-2.8-4.8-4"/><path d="M57.9 15.2c-.5-.3-1-.5-1.5-.7M74.1 46.4l-.2 1.6"/><path stroke-dasharray="3.1303,6.2607" d="M72.1 54c-2 4.9-5.1 9.2-9.2 12.5"/><path d="M60.4 68.3l-1.4.9"/></g><path fill="#FBAE17" d="M87.7 41.1h-27.2c-2.9 0-5.2 2.3-5.2 5.2v75.69999999999999c0 3.1-2.6 5.5-5.8 5.2-2.7-.3-4.7-2.7-4.7-5.4v-42.3c0-1.3-1-2.3-2.3-2.3-1.3 0-2.3 1-2.3 2.3v42.5c0 3.1-2.6 5.5-5.8 5.2-2.7-.3-4.7-2.7-4.7-5.4v-75.5c0-2.9-2.3-5.2-5.2-5.2h-27.3l.2-9h90.4l-.1 9zm-35.9-22.4c0-5.1-4.1-9.3-9.3-9.3s-9.3 4.1-9.3 9.3c0 5.1 4.1 9.3 9.3 9.3s9.3-4.2 9.3-9.3z"/><path fill="#E0851B" d="M42.4 28h.1c5.1 0 9.3-4.1 9.3-9.3 0-5.1-4.1-9.3-9.3-9.3h-.1v18.6zM42.4 32.1v45.1h.1c1.3 0 2.3 1 2.3 2.3v42.3c0 2.7 2 5.2 4.7 5.4 3.1.3 5.8-2.2 5.8-5.2v-75.7c0-2.9 2.3-5.2 5.2-5.2h27.2l.1-9h-45.4z"/><path fill="#D83B20" d="M45.6 39.5c-1.4 0-2.6.7-3.3 1.8-.7-1.1-1.9-1.8-3.3-1.8-2.1 0-3.8 1.7-3.8 3.8 0 1.3 1 2.6 1 2.6l6.1 7.4 6.1-7.4s1-1.3 1-2.6c.1-2.1-1.6-3.8-3.8-3.8z"/></g></svg>