<?xml version="1.0" encoding="utf-8"?>
<!-- Generator: Adobe Illustrator 19.2.1, SVG Export Plug-In . SVG Version: 6.00 Build 0)  -->
<!DOCTYPE svg PUBLIC "-//W3C//DTD SVG 1.1//EN" "http://www.w3.org/Graphics/SVG/1.1/DTD/svg11.dtd">
<svg version="1.1" id="Layer_1" xmlns="http://www.w3.org/2000/svg" xmlns:xlink="http://www.w3.org/1999/xlink" x="0px" y="0px"
	 viewBox="0 0 207.9 60.1" enable-background="new 0 0 207.9 60.1" xml:space="preserve">
<g>
	<g>
		<path fill="#FFFFFF" d="M40.1,21.8h11.8v3.1h-8.2v3.9h7.1v2.9h-7.1v6.6h-3.6V21.8z"/>
		<path fill="#FFFFFF" d="M61.7,21.8h3.6v16.4h-3.6V21.8z"/>
		<path fill="#FFFFFF" d="M75.5,21.8h7.2c4.7,0,6.3,2.6,6.3,5.2c0,1.9-1,3.7-3,4.5l3.1,6.7h-3.8l-2.5-6.1H79v6.1h-3.6V21.8z
			 M82.7,29.5c1.9,0,2.8-1.1,2.8-2.4c0-1.4-0.9-2.4-2.8-2.4H79v4.9H82.7z"/>
		<path fill="#FFFFFF" d="M99,21.8h12v3.1h-8.4v3.6h7.5v2.7h-7.5v3.9h8.5v3.1H99V21.8z"/>
		<path fill="#FFFFFF" d="M119.8,21.8h3.7l3.4,11.4h0l3.3-11.4h3.2l3.3,11.4h0l3.4-11.4h3.7l-5.2,16.4h-3.6l-3.2-11.2h0l-3.2,11.2
			h-3.6L119.8,21.8z"/>
		<path fill="#FFFFFF" d="M153.1,21.8h12v3.1h-8.4v3.6h7.5v2.7h-7.5v3.9h8.5v3.1h-12.1V21.8z"/>
		<path fill="#FFFFFF" d="M175,21.8h3.6v13.4h8.2v3.1H175V21.8z"/>
		<path fill="#FFFFFF" d="M196.2,21.8h3.6v13.4h8.2v3.1h-11.7V21.8z"/>
	</g>
	<g>
		<path fill="#DF8626" d="M0,40.7c0,2.3,0.9,4.6,2.7,6.4l13,13v-7.9c0-3.1-1.2-6.1-3.3-8.4l-3.1-3.3L0,40.7z"/>
		<path fill="#FAAE1B" d="M0,40.7c0,2.3,0.9,4.6,2.7,6.4l2.4,2.4c0,0-1.5-3.7,2.5-7.5l5.1-4.8c2.5-2.5,3-3.7,3-6.8l0-8.1l0-1.2
			c0,0-0.8,2-3.4,4.3c-2.5,2.3-8.1,7.4-9.7,8.8C0.8,36,0,38.4,0,40.7L0,40.7z"/>
		<path fill="#D73E27" d="M2.6,27.9L13.1,18c2-2.1,2.5-4.8,2.5-6.4l0-11.6l-0.4,1c-1.1,2.9-2.9,5.5-5.2,7.6
			c-2.4,2.2-5.4,4.9-7.5,6.7C-0.9,18.8-0.9,24.4,2.6,27.9L2.6,27.9z"/>
	</g>
</g>
</svg>
