<svg xmlns="http://www.w3.org/2000/svg" xmlns:xlink="http://www.w3.org/1999/xlink" viewBox="0 0 85 85" enable-background="new 0 0 85 85"><defs><circle id="a" cx="42.5" cy="42.5" r="42.5"/></defs><use xlink:href="#a" overflow="visible" fill="#264D67"/><clipPath id="b"><use xlink:href="#a" overflow="visible"/></clipPath><g clip-path="url(#b)"><circle fill="#16181D" cx="42.5" cy="42.5" r="42.5"/><path fill="#FAAE1C" d="M70.8 47.1c-.4-.9-.3-1.9.2-2.7 1-1.8.8-3.6.4-5.5l-.4-1.1h-58c-.2 1.2-.3 2.4-.3 3.7 0 6.5 2.4 12.4 6.3 16.9 1.7 3.8 3.8 8.4 3.8 8.4l-.2 26.8h36.1l-.1-9.1 9.1-3.1c2.4-.9 4-3.2 4-5.7l-.1-14 4.6-2.1c.8-.6 1.4-1.5 1.2-2.6-.2-.7-6.3-9.2-6.6-9.9z"/><path fill="#DF8626" d="M42.4 93.6v-55.9h-29.4c-.2 1.2-.3 2.4-.3 3.7 0 6.5 2.4 12.4 6.3 16.9 1.7 3.8 3.8 8.4 3.8 8.4l-.2 26.8h19.8z"/><g stroke="#fff" stroke-width="3.243" stroke-linecap="round" stroke-linejoin="round" fill="none"><path d="M13 30.2c.2-.7.4-1.4.7-2"/><path stroke-dasharray="4.3753,6.563" d="M16.6 22.3c9.9-15.4 31.3-17.8 44.5-6.1 2.8 2.5 5.2 5.5 6.9 9"/><path d="M69.4 28.2c.3.7.5 1.4.7 2"/></g><path fill="#DF8626" d="M63.6 33.8c0-10.4-9.9-18.8-22-18.8s-22.1 8.4-22.1 18.8v.1h44.1z"/><path fill="#D73E27" d="M42.4 15h-.9c-12.2 0-22.1 8.4-22.1 18.8v.1h22.9v-18.9z"/><path fill="#FAAE1C" d="M43.8 54.9v8.6c-3.5 0-12.7-4.1-12.7-10.4 0-4.8 2.8-6.8 6.4-6.8s6.3 3.9 6.3 8.6z"/></g></svg>