<?xml version="1.0" encoding="utf-8"?>
<!-- Generator: Adobe Illustrator 20.0.0, SVG Export Plug-In . SVG Version: 6.00 Build 0)  -->
<!DOCTYPE svg PUBLIC "-//W3C//DTD SVG 1.1//EN" "http://www.w3.org/Graphics/SVG/1.1/DTD/svg11.dtd">
<svg version="1.1" id="Layer_1" xmlns="http://www.w3.org/2000/svg" xmlns:xlink="http://www.w3.org/1999/xlink" x="0px" y="0px"
	 viewBox="0 0 16.1 13.9" enable-background="new 0 0 16.1 13.9" xml:space="preserve">
<path fill="#AAB1B7" d="M13.4,1.8V0H0v12.2c0,1,0.8,1.8,1.8,1.8h12.6c1,0,1.8-0.8,1.8-1.8V1.8H13.4z M0.8,12.2V0.8h11.8v0.9v0.4v10
	c0,0.3,0.1,0.6,0.3,0.9H1.8C1.3,13.1,0.8,12.7,0.8,12.2z M15.3,12.2c0,0.5-0.4,0.9-0.9,0.9c-0.5,0-0.9-0.4-0.9-0.9V2.6h1.8V12.2z
	 M11.3,4.9h-9V2.9h9V4.9z M11.3,7.1h-9V6h9V7.1z M11.3,9.2H7.4V8.1h3.9V9.2z M11.3,11.3H7.4v-1.1h3.9V11.3z M6.1,11.3H2.2V8.1h3.9
	V11.3z"/>
</svg>
