<?xml version="1.0" encoding="utf-8"?>
<!-- Generator: Adobe Illustrator 20.0.0, SVG Export Plug-In . SVG Version: 6.00 Build 0)  -->
<!DOCTYPE svg PUBLIC "-//W3C//DTD SVG 1.1//EN" "http://www.w3.org/Graphics/SVG/1.1/DTD/svg11.dtd">
<svg version="1.1" id="Layer_1" xmlns="http://www.w3.org/2000/svg" xmlns:xlink="http://www.w3.org/1999/xlink" x="0px" y="0px"
	 viewBox="0 0 14 16" enable-background="new 0 0 14 16" xml:space="preserve">
<g>
	<path fill="#FFFFFF" d="M13.1,3.1c0.1,0.1,0.2,0.3,0.3,0.4c0.1,0.2,0.2,0.3,0.3,0.5c0.1,0.2,0.1,0.4,0.2,0.6C14,4.9,14,5.1,14,5.2
		v9.5c0,0.2,0,0.3-0.1,0.5s-0.2,0.3-0.3,0.4c-0.1,0.1-0.2,0.2-0.4,0.3S12.9,16,12.8,16H1.2c-0.2,0-0.3,0-0.5-0.1s-0.3-0.2-0.4-0.3
		c-0.1-0.1-0.2-0.2-0.3-0.4S0,14.9,0,14.8V1.2c0-0.2,0-0.3,0.1-0.5s0.2-0.3,0.3-0.4c0.1-0.1,0.2-0.2,0.4-0.3S1.1,0,1.2,0h7.5
		c0.2,0,0.3,0,0.5,0.1c0.2,0,0.4,0.1,0.6,0.2c0.2,0.1,0.4,0.2,0.5,0.3c0.2,0.1,0.3,0.2,0.4,0.3L13.1,3.1z M13,14.8V5.2
		c0,0,0-0.1,0-0.1c0,0,0-0.1,0-0.1H9V1c0,0-0.1,0-0.1,0c0,0-0.1,0-0.1,0H1.2C1.2,1,1.1,1,1.1,1.1C1,1.1,1,1.2,1,1.2v13.5
		c0,0.1,0,0.1,0.1,0.2C1.1,15,1.2,15,1.2,15h11.5c0.1,0,0.1,0,0.2-0.1C13,14.9,13,14.8,13,14.8z M12.2,9.2c0,0,0.1,0.1,0.1,0.1
		c0,0,0,0.1,0,0.1c0,0.2,0,0.3,0,0.5c0,0.1-0.1,0.3-0.1,0.4c0,0-0.1,0.1-0.1,0.1c-0.1,0-0.1,0.1-0.2,0.1c0,0-0.1,0-0.1,0
		c-0.1,0-0.1,0-0.2,0c-0.2,0-0.4,0-0.6-0.1c-0.2,0-0.5-0.1-0.7-0.2C10,10.2,9.7,10.1,9.5,10C9.2,9.9,9,9.8,8.8,9.7
		c-0.3,0-0.6,0.1-1,0.2c-0.3,0.1-0.6,0.1-1,0.2c-0.3,0.1-0.7,0.1-1,0.2c-0.3,0.1-0.6,0.2-0.9,0.3c-0.3,0.5-0.5,0.9-0.8,1.2
		c-0.2,0.3-0.4,0.6-0.7,0.8C3.3,12.8,3.2,13,3,13.1c-0.2,0.1-0.4,0.2-0.5,0.2c-0.1,0-0.1,0-0.2,0c-0.1,0-0.1,0-0.2-0.1L1.8,13
		c-0.1,0-0.1-0.1-0.2-0.2c0-0.1,0-0.2,0-0.3c0-0.1,0.1-0.3,0.2-0.4C1.9,12,2,11.9,2.2,11.7c0.1-0.1,0.3-0.3,0.5-0.4
		c0.2-0.1,0.4-0.3,0.6-0.4c0.1,0,0.2-0.1,0.3-0.2c0.2-0.1,0.2-0.1,0.2-0.2l0.3-0.1c0.1-0.1,0.1-0.2,0.2-0.4c0.1-0.1,0.1-0.2,0.2-0.4
		c0.1-0.1,0.2-0.3,0.2-0.4C4.9,9.1,5,8.9,5.1,8.8l0-0.1c0.1-0.1,0.2-0.3,0.2-0.5c0.1-0.2,0.2-0.3,0.2-0.5c0.1-0.2,0.2-0.3,0.2-0.5
		C5.9,7.1,5.9,6.9,6,6.8l0.1-0.2C6,6.2,5.9,5.8,5.9,5.5C5.8,5.2,5.7,4.9,5.7,4.6c0-0.3,0-0.5,0-0.8c0-0.2,0-0.5,0.1-0.6
		C5.8,3.1,5.8,3,6,2.9c0.1-0.1,0.3-0.1,0.4-0.1h0.2c0.1,0,0.3,0,0.4,0.1s0.2,0.2,0.2,0.3l0,0.1c0,0,0,0.1,0,0.1c0,0,0,0.1,0,0.1
		c0,0.3,0,1.2-0.2,2.6c0,0,0,0.1,0,0.1c0,0,0,0.1,0,0.1C6.9,6.5,7,6.7,7.1,6.9c0.1,0.2,0.2,0.4,0.3,0.6C7.6,7.7,7.7,7.8,7.8,8
		C8,8.2,8.1,8.3,8.3,8.5c0.1,0.1,0.2,0.2,0.4,0.3C8.8,8.8,8.9,8.9,9.1,9c0.1,0,0.3,0,0.5,0c0.2,0,0.3,0,0.5,0c0.1,0,0.3,0,0.4,0
		c0.1,0,0.3,0,0.4,0c0.4,0,0.7,0,0.9,0.1C11.9,9,12.1,9.1,12.2,9.2z M2.3,12.7c0.1,0,0.2-0.1,0.3-0.2c0.1-0.1,0.2-0.2,0.3-0.3
		c0.1-0.1,0.3-0.3,0.4-0.5c0.2-0.2,0.3-0.5,0.5-0.8c-0.1,0-0.1,0.1-0.2,0.1c-0.1,0-0.1,0.1-0.1,0.1c-0.2,0.1-0.3,0.3-0.5,0.4
		C3,11.7,2.9,11.9,2.8,12c-0.1,0.1-0.2,0.3-0.3,0.4C2.4,12.5,2.3,12.6,2.3,12.7z M5.2,10c0.2-0.1,0.4-0.2,0.6-0.2
		c0.2-0.1,0.4-0.1,0.7-0.2C6.8,9.5,7,9.4,7.2,9.3S7.8,9.2,8,9.2c0,0-0.1-0.1-0.1-0.1c0,0-0.1-0.1-0.1-0.1C7.7,8.9,7.6,8.8,7.4,8.7
		S7.2,8.4,7.1,8.3C7,8.1,6.9,8,6.8,7.8C6.7,7.7,6.6,7.5,6.5,7.4c0,0.1-0.1,0.2-0.1,0.4C6.3,7.9,6.2,8,6.2,8.2C6.1,8.3,6,8.5,6,8.6
		C5.9,8.8,5.8,8.9,5.7,9.1C5.6,9.3,5.5,9.4,5.5,9.5C5.4,9.7,5.3,9.8,5.2,10z M6.5,3.1c0,0-0.1,0.2-0.1,0.8c0,0.1,0,0.2,0,0.3
		c0,0.1,0,0.2,0,0.3c0,0.1,0,0.2,0.1,0.4c0,0.1,0,0.2,0.1,0.3C6.6,5.1,6.7,5,6.8,4.8c0-0.2,0.1-0.4,0.1-0.6s0-0.5-0.1-0.7
		S6.6,3.1,6.5,3.1z M12.4,3.8l-2.2-2.2c0,0-0.1,0-0.1-0.1c0,0-0.1-0.1-0.1-0.1V4h2.6C12.5,4,12.5,3.9,12.4,3.8
		C12.5,3.9,12.4,3.9,12.4,3.8z M11.9,9.9c0,0,0-0.1,0-0.2c0-0.1-0.1-0.1-0.3-0.2c-0.2,0-0.3-0.1-0.4-0.1c-0.1,0-0.2,0-0.4,0
		c-0.1,0-0.2,0-0.3,0c-0.1,0-0.2,0-0.4,0c0.2,0.1,0.3,0.1,0.5,0.2c0.1,0.1,0.3,0.1,0.4,0.2c0.1,0,0.3,0.1,0.4,0.1c0.1,0,0.2,0,0.3,0
		c0,0,0.1,0,0.2,0C11.9,9.9,11.9,9.9,11.9,9.9z"/>
</g>
</svg>
