<svg xmlns="http://www.w3.org/2000/svg" xmlns:xlink="http://www.w3.org/1999/xlink" viewBox="0 0 86 86" enable-background="new 0 0 86 86"><defs><circle id="a" cx="43" cy="43" r="43"/></defs><clipPath id="b"><use xlink:href="#a" overflow="visible"/></clipPath><g clip-path="url(#b)"><circle fill="#16181D" cx="43" cy="43" r="43"/><path fill="#D83B20" d="M14.5 35.3h15.7v57.1h-15.7z"/><path fill="#FBAE17" d="M14.5 58.5h15.7v33.9h-15.7z"/><path fill="#E0851B" d="M14.5 65.4h15.7v26.9h-15.7z"/><path fill="#D83B20" d="M35.2 24.1h15.7v68.3h-15.7z"/><path fill="#FBAE17" d="M35.2 46.9h15.7v45.5h-15.7z"/><path fill="#E0851B" d="M35.2 67.1h15.7v25.2h-15.7z"/><path fill="#D83B20" d="M55.8 30.6h15.7v61.7h-15.7z"/><path fill="#FBAE17" d="M55.8 56.2h15.7v36.1h-15.7z"/><path fill="#E0851B" d="M55.8 71.4h15.7v21h-15.7z"/><g stroke="#fff" stroke-width="3.297" stroke-linecap="round" stroke-linejoin="round" fill="none"><path d="M-8.5 15.2l1.5.6"/><path stroke-dasharray="3.1484,6.2968" d="M-1.3 18.4l14.4 6.5"/><path d="M16 26.1l1.5.7 1.2-1"/><path stroke-dasharray="3.1338,6.2677" d="M23.6 21.9l12.3-9.8"/><path d="M38.3 10.1l1.3-1 1.5.7"/><path stroke-dasharray="3.5898,7.1797" d="M47.6 12.8l6.6 3"/><path d="M57.4 17.3l1.5.7 1.5-.7"/><path stroke-dasharray="3.3119,6.6237" d="M66.4 14.5l15.1-6.9"/><path d="M84.5 6.2l1.5-.7"/></g></g></svg>