<?xml version="1.0" encoding="utf-8"?>
<!-- Generator: Adobe Illustrator 20.0.0, SVG Export Plug-In . SVG Version: 6.00 Build 0)  -->
<!DOCTYPE svg PUBLIC "-//W3C//DTD SVG 1.1//EN" "http://www.w3.org/Graphics/SVG/1.1/DTD/svg11.dtd">
<svg version="1.1" id="Layer_1" xmlns="http://www.w3.org/2000/svg" xmlns:xlink="http://www.w3.org/1999/xlink" x="0px" y="0px"
	 viewBox="0 0 25 13" enable-background="new 0 0 25 13" xml:space="preserve">
<path fill="#AAB1B7" d="M19.9,0.7l4.8,5c0.4,0.5,0.4,1.2,0,1.6l-4.8,5c-0.4,0.5-1.1,0.7-1.7,0.7H1.2C0.5,13,0,12.5,0,11.8V1.2
	C0,0.5,0.5,0,1.2,0h17.1C18.9,0,19.5,0.3,19.9,0.7z M19.5,8.1c0.9,0,1.6-0.7,1.6-1.6s-0.7-1.6-1.6-1.6c-0.9,0-1.6,0.7-1.6,1.6
	S18.6,8.1,19.5,8.1z"/>
</svg>
