<svg xmlns="http://www.w3.org/2000/svg" xmlns:xlink="http://www.w3.org/1999/xlink" viewBox="0 0 85 85" enable-background="new 0 0 85 85"><defs><circle id="a" cx="42.5" cy="42.5" r="42.5"/></defs><clipPath id="b"><use xlink:href="#a" overflow="visible"/></clipPath><g clip-path="url(#b)"><circle fill="#16181D" cx="42.5" cy="42.5" r="42.5"/><path fill="#E0851B" d="M21.8 27.6h54.2v77.3h-54.2z"/><path fill="#FBAE17" d="M13.8 19.6h54.2v77.3h-54.2zM17.8 23.6h54.2v77.3h-54.2z"/><path fill="#E0851B" d="M67.9 19.6l-54.1 77.2h54.1z"/><path stroke="#fff" stroke-width="4" stroke-linecap="round" stroke-linejoin="round" d="M11.1 26.2h5.7m-5.7 8h5.7m-5.7 8h5.7m-5.7 8h5.7m-5.7 8h5.7m-5.7 8h5.7m-5.7 8h5.7m-5.7 8h5.7m-5.7 8h5.7" fill="none"/><path fill="#D83B20" d="M26.7 29.2h34.3v23.7h-34.3zM26.7 58.5h23.2v3.6h-23.2zM26.7 64.4h23.2v3.6h-23.2z"/></g></svg>