<?xml version="1.0" encoding="utf-8"?>
<!-- Generator: Adobe Illustrator 20.0.0, SVG Export Plug-In . SVG Version: 6.00 Build 0)  -->
<!DOCTYPE svg PUBLIC "-//W3C//DTD SVG 1.1//EN" "http://www.w3.org/Graphics/SVG/1.1/DTD/svg11.dtd">
<svg version="1.1" id="Layer_1" xmlns="http://www.w3.org/2000/svg" xmlns:xlink="http://www.w3.org/1999/xlink" x="0px" y="0px"
	 viewBox="0 0 30 24.4" enable-background="new 0 0 30 24.4" xml:space="preserve">
<path fill="#D83B20" d="M30,2.9c-1.1,0.5-2.3,0.8-3.5,1c1.3-0.8,2.2-2,2.7-3.4C28,1.2,26.7,1.7,25.3,2c-1.2-1.3-2.8-2-4.5-2
	c-3.4,0-6.2,2.8-6.2,6.2c0,0.5,0.1,1,0.2,1.4C9.7,7.3,5.1,4.9,2.1,1.1C1.6,2,1.3,3.1,1.3,4.2c0,2.1,1.1,4,2.7,5.1C3,9.3,2,9,1.2,8.6
	v0.1c0,3,2.1,5.5,4.9,6c-0.5,0.1-1.1,0.2-1.6,0.2c-0.4,0-0.8,0-1.2-0.1C4.1,17.2,6.4,19,9,19.1c-2.1,1.7-4.8,2.6-7.6,2.6
	c-0.5,0-1,0-1.5-0.1c2.7,1.7,6,2.8,9.4,2.8c11.3,0,17.5-9.4,17.5-17.5c0-0.3,0-0.5,0-0.8C28.1,5.2,29.2,4.1,30,2.9z"/>
</svg>
