<svg xmlns="http://www.w3.org/2000/svg" viewBox="0 0 85 85" enable-background="new 0 0 85 85"><circle fill="#16181D" cx="42.5" cy="42.5" r="42.5"/><path fill="#FBAE17" d="M66 60.5h-47c-2.8 0-5-2.2-5-5v-26c0-2.8 2.2-5 5-5h47c2.8 0 5 2.2 5 5v26c0 2.8-2.2 5-5 5z"/><path fill="#E0851B" d="M14 42.5v13c0 2.8 2.2 5 5 5h47c2.8 0 5-2.2 5-5v-13h-57z"/><path fill="#D83B20" d="M32.8 55.2v-25.4l23.4 12.7z"/><g stroke="#F3F3F3" stroke-width="3.389" stroke-linecap="round" stroke-linejoin="round" fill="none"><path d="M19.3 66.5h1.7"/><path stroke-dasharray="3.127,6.2539" d="M27.2 66.5h34.4"/><path d="M64.7 66.5h1.7M19.3 18.5h1.7"/><path stroke-dasharray="3.127,6.2539" d="M27.2 18.5h34.4"/><path d="M64.7 18.5h1.7"/></g></svg>