<svg xmlns="http://www.w3.org/2000/svg" xmlns:xlink="http://www.w3.org/1999/xlink" viewBox="0 0 85 85" enable-background="new 0 0 85 85"><defs><circle id="a" cx="42.5" cy="42.5" r="42.5"/></defs><clipPath id="b"><use xlink:href="#a" overflow="visible"/></clipPath><g clip-path="url(#b)"><circle fill="#16181D" cx="42.5" cy="42.5" r="42.5"/><path fill="#D83B20" d="M27.7 82.9v54.6h-45.1v-54.6c0-9.9 6.3-18.3 15.2-21.3-3.2-2.3-5.4-6.1-5.4-10.3 0-7 5.7-12.7 12.7-12.7 7 0 12.7 5.7 12.7 12.7 0 4.3-2.1 8-5.4 10.3 9 3 15.3 11.4 15.3 21.3z"/><path fill="#FBAE17" d="M87.2 61.6c3.2-2.3 5.4-6.1 5.4-10.3 0-7-5.7-12.7-12.7-12.7-7 0-12.7 5.7-12.7 12.7 0 4.3 2.1 8 5.4 10.3-8.8 3-15.2 11.4-15.2 21.3v54.6h45.1v-54.6c-.1-9.9-6.5-18.3-15.3-21.3zM51.3 57.4c3.9-2.8 6.4-7.3 6.4-12.4 0-8.4-6.8-15.2-15.2-15.2-8.4 0-15.2 6.8-15.2 15.2 0 5.1 2.5 9.6 6.4 12.4-10.6 3.6-18.2 13.7-18.2 25.5v65.3h53.9v-65.3c.1-11.8-7.5-21.8-18.1-25.5z"/><path fill="#E0851B" d="M51.3 57.4c3.9-2.8 6.4-7.3 6.4-12.4 0-8.4-6.8-15.2-15.2-15.2h-.1v118.3h27.1v-65.2c0-11.8-7.6-21.8-18.2-25.5z"/><g stroke="#fff" stroke-width="3.394" stroke-linecap="round" stroke-linejoin="round" fill="none"><path d="M72.8 32.6c-.3-.8-.6-1.6-1-2.3"/><path stroke-dasharray="4.8459,8.0765" d="M67.3 23.5c-10.9-12.9-31.2-15.8-45.2-4.5-2.7 2.2-5 4.8-6.9 7.7"/><path d="M13.3 30.2c-.4.8-.7 1.5-1 2.3"/></g></g></svg>